<svg width="48" height="48" viewBox="0 0 48 48" fill="none" xmlns="http://www.w3.org/2000/svg">
<path fill-rule="evenodd" clip-rule="evenodd" d="M26.4 2.46155V41.8462H40.8V17.2308H31.2V12.3077H45.6L45.6 41.8461L48 41.8462V46.7692H26.4H2.4L2.39996 46.7691L0 46.7692V41.8462L2.39996 41.8461L2.4 2.46155H26.4ZM21.6 7.38462H7.2V41.8462H12V34.4615H16.8V41.8462H21.6V7.38462ZM36 32V36.9231H31.2V32H36ZM16.8 22.1539V27.0769H12V22.1539H16.8ZM36 22.1539V27.0769H31.2V22.1539H36ZM16.8 12.3077V17.2308H12V12.3077H16.8Z" fill="#E09D00"/>
</svg>
