<svg width="105" height="102" viewBox="0 0 105 102" fill="none" xmlns="http://www.w3.org/2000/svg">
<rect width="105" height="102" fill="#3D3D45"/>
<path d="M76.4826 66.0694H28.5174C27.2408 66.0694 26.2023 67.0764 26.2023 68.3611C26.2023 69.6458 27.2409 70.6528 28.5174 70.6528H76.4827C77.7594 70.6528 78.7979 69.6458 78.7979 68.3611C78.7979 67.0764 77.7593 66.0694 76.4826 66.0694Z" fill="#E09D00"/>
<path d="M67.9424 46.6875C65.6073 44.3376 62.8516 42.5375 59.6426 41.4519V51.5499C59.6426 52.123 59.177 52.5877 58.6075 52.5877C58.0379 52.5877 57.5723 52.1231 57.5723 51.5499V36.8737C57.5723 35.0164 56.1023 33.5694 54.2565 33.5694H54.0528V45.9883C54.0528 46.5614 53.5872 47.0261 53.0176 47.0261C52.4481 47.0261 51.9825 46.5615 51.9825 45.9883V33.5694H51.8591C50.0133 33.5694 48.4629 35.0164 48.4629 36.8737V51.5499C48.4629 52.123 47.9973 52.5877 47.4278 52.5877C46.8582 52.5877 46.3926 52.1231 46.3926 51.5499V41.0927C38.5254 43.4065 32.4582 50.2361 30.9863 58.3611H74.0245C73.2494 53.9861 71.1494 49.9145 67.9424 46.6875Z" fill="#E09D00"/>
<path d="M74.3418 62.2135C74.3418 61.6093 74.3378 60.9653 74.2899 60.4444H30.7123C30.6628 60.9653 30.6582 61.6088 30.6582 62.2135V63.9861H74.3418V62.2135Z" fill="#E09D00"/>
</svg>
