<svg width="105" height="102" viewBox="0 0 105 102" fill="none" xmlns="http://www.w3.org/2000/svg">
<rect width="105" height="102" fill="#3D3D45"/>
<g clip-path="url(#clip0_214_4)">
<path d="M73.6147 72.0729L69.5817 64.007H71.7642C72.6277 64.007 73.3278 63.3069 73.3278 62.4434C73.3278 61.5798 72.6277 60.8797 71.7642 60.8797H68.0182L60.1809 45.205C60.5905 44.2568 60.8185 43.2124 60.8185 42.1155C60.8185 39.5632 59.5887 37.2929 57.6911 35.8651V31.6911C57.691 29.1044 55.5866 27 53.0001 27C50.4134 27 48.309 29.1044 48.309 31.6911V35.8651C46.4113 37.2929 45.1817 39.5632 45.1817 42.1155C45.1817 43.2124 45.4098 44.2567 45.8193 45.205L37.9819 60.8796H34.2359C33.3723 60.8796 32.6722 61.5797 32.6722 62.4433C32.6722 63.3068 33.3723 64.0069 34.2359 64.0069H36.4183L32.3853 72.0729C31.9991 72.8452 32.3123 73.7846 33.0846 74.1708C36.9498 76.1036 41.6422 74.5398 43.575 70.674L46.9085 64.0071H51.4363V65.5708C51.4363 66.4343 52.1364 67.1344 53 67.1344C53.8635 67.1344 54.5636 66.4343 54.5636 65.5708V64.0071H59.0915L62.425 70.674C64.3507 74.5253 69.0341 76.1114 72.9153 74.1708C73.6878 73.7846 74.0009 72.8452 73.6147 72.0729ZM51.4364 31.6911C51.4364 30.8288 52.1378 30.1274 53.0001 30.1274C53.8623 30.1274 54.5637 30.8288 54.5637 31.6911V34.4545C54.0583 34.3515 53.5355 34.2972 53.0001 34.2972C52.4647 34.2972 51.9418 34.3515 51.4364 34.4545V31.6911ZM53.0001 37.4245C55.5867 37.4245 57.6911 39.5289 57.6911 42.1156C57.6911 44.5981 55.7524 46.6351 53.3097 46.7952C53.1038 46.7536 52.899 46.7531 52.6905 46.7952C50.2477 46.6351 48.3091 44.5981 48.3091 42.1156C48.309 39.5289 50.4134 37.4245 53.0001 37.4245ZM40.7779 69.2753C39.8453 71.1407 37.8742 72.0706 36.0006 71.8353L39.9148 64.0069H43.4121L40.7779 69.2753ZM44.9757 60.8796H41.4784L47.9009 48.0347C48.6905 48.7158 49.6161 49.2427 50.6323 49.5664L44.9757 60.8796ZM54.5637 60.8796V59.316C54.5637 58.4524 53.8636 57.7523 53.0001 57.7523C52.1365 57.7523 51.4364 58.4524 51.4364 59.316V60.8796H48.4722L53.0001 51.824L57.5279 60.8797L54.5637 60.8796ZM61.0244 60.8796L55.3677 49.5664C56.384 49.2427 57.3096 48.7158 58.0991 48.0346L64.5216 60.8796H61.0244ZM65.2223 69.2753L62.5881 64.007H66.0853L69.9995 71.8354C68.1286 72.0704 66.1561 71.1431 65.2223 69.2753Z" fill="#E09D00"/>
</g>
<defs>
<clipPath id="clip0_214_4">
<rect width="48" height="48" fill="white" transform="translate(29 27)"/>
</clipPath>
</defs>
</svg>
