<svg width="105" height="102" viewBox="0 0 105 102" fill="none" xmlns="http://www.w3.org/2000/svg">
<rect width="105" height="102" fill="#3D3D45"/>
<g clip-path="url(#clip0_214_7)">
<path d="M76.5613 35.672L68.3279 27.4386C68.1527 27.2634 67.9152 27.165 67.6675 27.165C67.4198 27.165 67.1822 27.2634 67.007 27.4386L64.5371 29.9086C64.3625 30.0832 64.2642 30.3197 64.2635 30.5665L64.2462 37.136C64.246 37.2414 64.2645 37.3446 64.2982 37.4424L58.5391 43.2014L60.7984 45.4607L66.5574 39.6999C66.6544 39.7333 66.7569 39.75 66.8614 39.75C66.8622 39.75 66.8631 39.75 66.8638 39.75L73.4333 39.7345C73.6801 39.7339 73.9167 39.6365 74.0913 39.4619L76.5612 36.9924C76.9261 36.6277 76.9261 36.0367 76.5613 35.672ZM73.043 37.8694L67.2473 37.8847L66.1152 36.7526L66.1305 30.9569L67.6676 29.4199L74.58 36.3324L73.043 37.8694Z" fill="#E09D00"/>
<path d="M44.6363 64.2647C43.9817 64.9193 43.1114 65.2797 42.1857 65.2797C41.2602 65.2797 40.3898 64.9193 39.7354 64.2647L39.7353 64.2646C39.0807 63.6101 38.7203 62.7399 38.7203 61.8143C38.7203 60.8886 39.0807 60.0183 39.7353 59.3637L41.7599 57.3391L37.7106 53.2899L31.4686 59.5318C29.3534 61.6469 28.6271 64.7246 29.573 67.564L31.2886 72.7112L36.436 74.4269C39.2756 75.373 42.3531 74.6466 44.4681 72.5314L50.7101 66.2894L46.6608 62.2402L44.6363 64.2647Z" fill="#E09D00"/>
<path d="M41.0562 60.6782C40.7545 60.9799 40.5883 61.3874 40.5883 61.8143C40.5883 62.2409 40.7545 62.6421 41.0561 62.9438C41.3578 63.2455 41.759 63.4118 42.1858 63.4118C42.6125 63.4118 43.0137 63.2455 43.3154 62.9438L54.5026 51.7551L52.3368 49.4009L41.0562 60.6782Z" fill="#E09D00"/>
<path d="M53.5644 48.1768L55.8236 50.436L59.4777 46.7819L57.2186 44.5227L53.5644 48.1768Z" fill="#E09D00"/>
</g>
<defs>
<clipPath id="clip0_214_7">
<rect width="48" height="48" fill="white" transform="translate(29 27)"/>
</clipPath>
</defs>
</svg>
