<svg width="105" height="105" viewBox="0 0 105 105" fill="none" xmlns="http://www.w3.org/2000/svg">
<rect width="105" height="105" fill="#3D3D45"/>
<path d="M67.73 75.1722H41.27C38.281 75.1722 35.4144 74.1159 33.3009 72.2358C31.1874 70.3556 30 67.8056 30 65.1467C30.0007 62.6707 31.0313 60.2826 32.8933 58.4423L50.0433 41.484H58.9567L76.1067 58.4423C77.9687 60.2826 78.9993 62.6707 79 65.1467C79 67.8056 77.8126 70.3556 75.6991 72.2358C73.5856 74.1159 70.719 75.1722 67.73 75.1722Z" stroke="#E09D00" stroke-width="6" stroke-miterlimit="10" stroke-linecap="square"/>
<path d="M63.4133 31.583L62.5033 35.7344C62.1167 37.3656 61.1095 38.8283 59.6515 39.8758C58.1935 40.9232 56.374 41.4912 54.5 41.484C52.6129 41.4873 50.7831 40.9075 49.3233 39.8436C47.8635 38.7798 46.8644 37.2979 46.4967 35.6514L45.5867 31.5L63.4133 31.583Z" stroke="#E09D00" stroke-width="5" stroke-miterlimit="10" stroke-linecap="square"/>
<path d="M70.0867 35.5475L61.1733 39.5121" stroke="#E09D00" stroke-width="5" stroke-miterlimit="10" stroke-linecap="square"/>
<path d="M72.3265 41.484H58.9565" stroke="#E09D00" stroke-width="4" stroke-miterlimit="10" stroke-linecap="square"/>
<path d="M50.0433 65.2713H55.6199C56.5049 65.2713 57.3536 64.9585 57.9793 64.4019C58.6051 63.8452 58.9566 63.0903 58.9566 62.303C58.9597 61.9115 58.8757 61.5233 58.7094 61.1608C58.5431 60.7983 58.2978 60.4686 57.9876 60.1908C57.6775 59.9129 57.3086 59.6924 56.9022 59.542C56.4959 59.3915 56.0601 59.314 55.6199 59.3141H53.2866C52.4017 59.3141 51.553 59.0013 50.9272 58.4447C50.3015 57.888 49.95 57.1331 49.95 56.3458C49.9498 55.949 50.0391 55.5561 50.2126 55.1904C50.3861 54.8248 50.6402 54.4938 50.96 54.2171C51.2798 53.9404 51.6587 53.7235 52.0744 53.5793C52.49 53.4351 52.934 53.3665 53.38 53.3776H58.9566" stroke="#E09D00" stroke-width="5" stroke-miterlimit="10" stroke-linecap="square"/>
<path d="M54.5 51.4057V53.3776" stroke="#E09D00" stroke-width="3" stroke-miterlimit="10" stroke-linecap="square"/>
<path d="M54.5 65.2712V67.2431" stroke="#E09D00" stroke-width="3" stroke-miterlimit="10" stroke-linecap="square"/>
</svg>
