<svg width="110" height="110" viewBox="0 0 110 110" fill="none" xmlns="http://www.w3.org/2000/svg">
<rect width="110" height="110" fill="#3D3D45"/>
<path d="M67.73 78.7518H41.27C38.281 78.7518 35.4144 77.6453 33.3009 75.6756C31.1874 73.7059 30 71.0345 30 68.2489C30.0007 65.655 31.0313 63.1532 32.8933 61.2252L50.0433 43.4594H58.9567L76.1067 61.2252C77.9687 63.1532 78.9993 65.655 79 68.2489C79 71.0345 77.8126 73.7059 75.6991 75.6756C73.5856 77.6453 70.719 78.7518 67.73 78.7518Z" stroke="#E09D00" stroke-width="6" stroke-miterlimit="10" stroke-linecap="square"/>
<path d="M63.4133 33.087L62.5033 37.436C62.1167 39.1449 61.1095 40.6773 59.6515 41.7746C58.1935 42.8719 56.374 43.467 54.5 43.4594C52.6129 43.4629 50.7831 42.8555 49.3233 41.7409C47.8635 40.6264 46.8644 39.074 46.4967 37.349L45.5867 33L63.4133 33.087Z" stroke="#E09D00" stroke-width="5" stroke-miterlimit="10" stroke-linecap="square"/>
<path d="M70.0867 37.2403L61.1733 41.3936" stroke="#E09D00" stroke-width="5" stroke-miterlimit="10" stroke-linecap="square"/>
<path d="M72.3265 43.4594H58.9565" stroke="#E09D00" stroke-width="4" stroke-miterlimit="10" stroke-linecap="square"/>
<path d="M50.0433 68.3794H55.6199C56.5049 68.3794 57.3536 68.0518 57.9793 67.4687C58.6051 66.8855 58.9566 66.0946 58.9566 65.2699C58.9597 64.8597 58.8757 64.453 58.7094 64.0732C58.5431 63.6934 58.2978 63.3481 57.9876 63.057C57.6775 62.7659 57.3086 62.5349 56.9022 62.3773C56.4959 62.2197 56.0601 62.1385 55.6199 62.1386H53.2866C52.4017 62.1386 51.553 61.8109 50.9272 61.2278C50.3015 60.6446 49.95 59.8537 49.95 59.029C49.9498 58.6132 50.0391 58.2016 50.2126 57.8186C50.3861 57.4355 50.6402 57.0888 50.96 56.7989C51.2798 56.509 51.6587 56.2817 52.0744 56.1307C52.49 55.9796 52.934 55.9078 53.38 55.9194H58.9566" stroke="#E09D00" stroke-width="5" stroke-miterlimit="10" stroke-linecap="square"/>
<path d="M54.5 53.8536V55.9194" stroke="#E09D00" stroke-width="3" stroke-miterlimit="10" stroke-linecap="square"/>
<path d="M54.5 68.3794V70.4452" stroke="#E09D00" stroke-width="3" stroke-miterlimit="10" stroke-linecap="square"/>
</svg>
