<svg width="48" height="48" viewBox="0 0 48 48" fill="none" xmlns="http://www.w3.org/2000/svg">
<g clip-path="url(#clip0_74_122)">
<path d="M44.6148 45.0729L40.5818 37.007H42.7642C43.6278 37.007 44.3279 36.3069 44.3279 35.4434C44.3279 34.5798 43.6278 33.8797 42.7642 33.8797H39.0182L31.1809 18.205C31.5905 17.2568 31.8185 16.2124 31.8185 15.1155C31.8185 12.5632 30.5888 10.2929 28.6912 8.8651V4.69106C28.6911 2.10439 26.5867 -1.52588e-05 24.0001 -1.52588e-05C21.4135 -1.52588e-05 19.3091 2.10439 19.3091 4.69106V8.8651C17.4114 10.2929 16.1817 12.5632 16.1817 15.1155C16.1817 16.2124 16.4098 17.2567 16.8193 18.205L8.982 33.8796H5.23593C4.3724 33.8796 3.67227 34.5797 3.67227 35.4433C3.67227 36.3068 4.3724 37.0069 5.23593 37.0069H7.41834L3.3854 45.0729C2.99915 45.8452 3.31236 46.7846 4.08468 47.1708C7.9499 49.1036 12.6423 47.5398 14.575 43.674L17.9085 37.0071H22.4364V38.5708C22.4364 39.4343 23.1365 40.1344 24 40.1344C24.8636 40.1344 25.5637 39.4343 25.5637 38.5708V37.0071H30.0915L33.425 43.674C35.3507 47.5253 40.0341 49.1114 43.9154 47.1708C44.6879 46.7846 45.001 45.8452 44.6148 45.0729ZM22.4365 4.69106C22.4365 3.82884 23.1379 3.1274 24.0001 3.1274C24.8623 3.1274 25.5638 3.82884 25.5638 4.69106V7.45453C25.0584 7.3515 24.5355 7.29722 24.0001 7.29722C23.4647 7.29722 22.9419 7.3515 22.4365 7.45453V4.69106ZM24.0001 10.4245C26.5868 10.4245 28.6912 12.5289 28.6912 15.1156C28.6912 17.5981 26.7524 19.6351 24.3098 19.7952C24.1038 19.7536 23.8991 19.7531 23.6906 19.7952C21.2478 19.6351 19.3091 17.5981 19.3091 15.1156C19.3091 12.5289 21.4135 10.4245 24.0001 10.4245ZM11.7779 42.2753C10.8454 44.1407 8.87428 45.0706 7.00068 44.8353L10.9148 37.0069H14.4122L11.7779 42.2753ZM15.9758 33.8796H12.4784L18.901 21.0347C19.6905 21.7158 20.6162 22.2427 21.6324 22.5664L15.9758 33.8796ZM25.5638 33.8796V32.316C25.5638 31.4524 24.8637 30.7523 24.0001 30.7523C23.1366 30.7523 22.4365 31.4524 22.4365 32.316V33.8796H19.4723L24.0001 24.824L28.528 33.8797L25.5638 33.8796ZM32.0245 33.8796L26.3678 22.5664C27.384 22.2427 28.3096 21.7158 29.0992 21.0346L35.5216 33.8796H32.0245ZM36.2223 42.2753L33.5881 37.007H37.0854L40.9996 44.8354C39.1287 45.0704 37.1562 44.1431 36.2223 42.2753Z" fill="#E09D00"/>
</g>
<defs>
<clipPath id="clip0_74_122">
<rect width="48" height="48" fill="white"/>
</clipPath>
</defs>
</svg>
