<svg width="48" height="48" viewBox="0 0 48 48" fill="none" xmlns="http://www.w3.org/2000/svg">
<g clip-path="url(#clip0_74_100)">
<path fill-rule="evenodd" clip-rule="evenodd" d="M42.6509 47.847C44.2439 49.446 45.2279 48.309 46.5359 47.004C47.8439 45.699 48.9779 44.712 47.3849 43.116C47.3849 43.116 25.1789 20.931 19.6949 15.462L14.9609 20.193L42.6509 47.847Z" fill="#E09D00"/>
<path fill-rule="evenodd" clip-rule="evenodd" d="M6.14397 24.045L7.98597 22.233C7.98597 22.233 7.17297 20.004 8.36397 18.936C9.55497 17.868 11.565 18.528 11.565 18.528L18.03 12.279C18.03 12.279 17.577 9.03 18.177 8.43C18.777 7.83 25.482 4.563 26.13 3.909L24.753 2.532C24.753 2.532 15.369 3.66 14.352 4.674C13.755 5.274 9.28797 9.786 6.10197 12.972C6.10197 12.972 6.89997 15.249 5.84997 16.299C4.79697 17.352 2.42697 16.599 2.42697 16.599C1.30797 17.718 0.557972 18.465 0.557972 18.465C-0.231028 19.26 0.233972 20.376 1.20297 21.345L3.26097 23.403C4.23597 24.375 5.35497 24.834 6.14397 24.045Z" fill="#E09D00"/>
<path fill-rule="evenodd" clip-rule="evenodd" d="M35.199 19.545C38.43 21.078 42.483 20.607 45.165 17.925C47.235 15.855 48.057 13.008 47.616 10.332L43.053 14.889L39.171 15.852L34.785 11.526L35.814 7.51499L40.335 3.05099C37.656 2.61299 34.629 3.24599 32.559 5.31899C29.874 8.00399 29.508 12.156 31.041 15.39L28.059 18.369C29.37 19.674 30.771 21.075 32.223 22.524L35.199 19.545Z" fill="#E09D00"/>
<path fill-rule="evenodd" clip-rule="evenodd" d="M22.296 33.357L17.781 28.845L13.857 32.772C13.611 33.012 13.437 33.285 13.314 33.57C13.083 33.48 12.954 33.477 12.873 33.51C12.123 33.261 11.331 33.093 10.5 33.093C6.357 33.093 3 36.408 3 40.5C3 44.592 6.357 47.907 10.5 47.907C14.643 47.907 18 44.592 18 40.5C18 39.651 17.823 38.847 17.562 38.088C17.547 38.016 17.544 37.95 17.502 37.845C17.814 37.716 18.108 37.542 18.366 37.281L22.296 33.357ZM10.5 44.814C8.064 44.814 6.093 42.885 6.093 40.5C6.093 38.115 8.061 36.186 10.5 36.186C12.939 36.186 14.907 38.115 14.907 40.5C14.907 42.885 12.936 44.814 10.5 44.814Z" fill="#E09D00"/>
</g>
<defs>
<clipPath id="clip0_74_100">
<rect width="48" height="48" fill="white"/>
</clipPath>
</defs>
</svg>
