<svg width="53" height="40" viewBox="0 0 53 40" fill="none" xmlns="http://www.w3.org/2000/svg">
<path d="M50.4826 35.0694H2.5174C1.24074 35.0694 0.202271 36.0764 0.202271 37.3611C0.202271 38.6458 1.24084 39.6528 2.5174 39.6528H50.4827C51.7594 39.6528 52.7978 38.6458 52.7978 37.3611C52.7978 36.0764 51.7593 35.0694 50.4826 35.0694Z" fill="#E09D00"/>
<path d="M41.9423 15.6875C39.6072 13.3376 36.8515 11.5375 33.6425 10.4519V20.5499C33.6425 21.123 33.1769 21.5877 32.6074 21.5877C32.0378 21.5877 31.5722 21.1231 31.5722 20.5499V5.87371C31.5722 4.01642 30.1022 2.56944 28.2564 2.56944H28.0527V14.9883C28.0527 15.5614 27.5871 16.0261 27.0175 16.0261C26.448 16.0261 25.9824 15.5615 25.9824 14.9883V2.56944H25.859C24.0132 2.56944 22.4629 4.01642 22.4629 5.87371V20.5499C22.4629 21.123 21.9972 21.5877 21.4277 21.5877C20.8582 21.5877 20.3925 21.1231 20.3925 20.5499V10.0927C12.5254 12.4065 6.45809 19.2361 4.98621 27.3611H48.0244C47.2494 22.9861 45.1493 18.9145 41.9423 15.6875Z" fill="#E09D00"/>
<path d="M48.3418 31.2135C48.3418 30.6093 48.3378 29.9653 48.2898 29.4444H4.71224C4.66276 29.9653 4.6582 30.6088 4.6582 31.2135V32.9861H48.3418V31.2135Z" fill="#E09D00"/>
</svg>
