<svg width="105" height="102" viewBox="0 0 105 102" fill="none" xmlns="http://www.w3.org/2000/svg">
<rect width="105" height="102" fill="#3D3D45"/>
<g clip-path="url(#clip0_214_6)">
<path fill-rule="evenodd" clip-rule="evenodd" d="M34.7422 55.5312H71.2148C71.7891 54.7656 71.7031 53.9805 71.2148 53.1875L57.6836 35.9453H48.8516L34.7422 53.1836C34.3477 53.9844 34.1914 54.7734 34.7422 55.5312ZM52.1133 65.0078C52.1133 64.5195 52.5117 64.1211 53 64.1211C53.4883 64.1211 53.8867 64.5195 53.8867 65.0078V74.1172C53.8867 74.6055 53.4883 75.0039 53 75.0039C52.5117 75.0039 52.1133 74.6055 52.1133 74.1172V65.0078ZM60.0352 63.6523C59.6797 63.3203 59.6563 62.7656 59.9883 62.4062C60.3203 62.0508 60.875 62.0273 61.2344 62.3594L68.2578 68.8555C68.6133 69.1875 68.6367 69.7422 68.3047 70.1016C67.9727 70.457 67.4141 70.4805 67.0586 70.1484L60.0352 63.6523ZM44.9922 62.3398C45.3594 62.0195 45.918 62.0547 46.2383 62.4219C46.5586 62.7891 46.5234 63.3477 46.1563 63.668L39.1328 69.8125C38.7656 70.1328 38.207 70.0977 37.8867 69.7305C37.5664 69.3633 37.6016 68.8047 37.9688 68.4844L44.9922 62.3398ZM52 27H54.0039V30.4766C55.9102 30.9336 57.3359 32.6562 57.3359 34.6953V34.9766H48.6641V34.6953C48.6641 32.6562 50.0938 30.9336 52 30.4766V27ZM53.0664 61.6016C55.4063 61.6016 57.3242 59.6875 57.3242 57.3437V57.0703H48.8086V57.3437C48.8086 59.6875 50.7227 61.6016 53.0664 61.6016Z" fill="#E09D00"/>
</g>
<defs>
<clipPath id="clip0_214_6">
<rect width="48" height="48" fill="white" transform="translate(29 27)"/>
</clipPath>
</defs>
</svg>
