<svg width="48" height="48" viewBox="0 0 48 48" fill="none" xmlns="http://www.w3.org/2000/svg">
<g clip-path="url(#clip0_74_119)">
<path fill-rule="evenodd" clip-rule="evenodd" d="M5.74214 28.5312H42.2148C42.789 27.7656 42.7031 26.9805 42.2148 26.1875L28.6835 8.94531H19.8515L5.74214 26.1836C5.3476 26.9844 5.19135 27.7734 5.74214 28.5312ZM23.1132 38.0078C23.1132 37.5195 23.5117 37.1211 23.9999 37.1211C24.4882 37.1211 24.8867 37.5195 24.8867 38.0078V47.1172C24.8867 47.6055 24.4882 48.0039 23.9999 48.0039C23.5117 48.0039 23.1132 47.6055 23.1132 47.1172V38.0078ZM31.0351 36.6523C30.6796 36.3203 30.6562 35.7656 30.9882 35.4062C31.3203 35.0508 31.8749 35.0273 32.2343 35.3594L39.2578 41.8555C39.6132 42.1875 39.6367 42.7422 39.3046 43.1016C38.9726 43.457 38.414 43.4805 38.0585 43.1484L31.0351 36.6523ZM15.9921 35.3398C16.3593 35.0195 16.9179 35.0547 17.2382 35.4219C17.5585 35.7891 17.5234 36.3477 17.1562 36.668L10.1328 42.8125C9.76557 43.1328 9.20698 43.0977 8.88667 42.7305C8.56635 42.3633 8.60151 41.8047 8.9687 41.4844L15.9921 35.3398ZM22.9999 0H25.0039V3.47656C26.9101 3.93359 28.3359 5.65625 28.3359 7.69531V7.97656H19.664V7.69531C19.664 5.65625 21.0937 3.93359 22.9999 3.47656V0ZM24.0664 34.6016C26.4062 34.6016 28.3242 32.6875 28.3242 30.3437V30.0703H19.8085V30.3437C19.8085 32.6875 21.7226 34.6016 24.0664 34.6016Z" fill="#E09D00"/>
</g>
<defs>
<clipPath id="clip0_74_119">
<rect width="48" height="48" fill="white"/>
</clipPath>
</defs>
</svg>
