<svg width="105" height="102" viewBox="0 0 105 102" fill="none" xmlns="http://www.w3.org/2000/svg">
<rect width="105" height="102" fill="#3D3D45"/>
<path fill-rule="evenodd" clip-rule="evenodd" d="M71.651 75.847C73.244 77.446 74.228 76.309 75.536 75.004C76.844 73.699 77.978 72.712 76.385 71.116C76.385 71.116 54.179 48.931 48.695 43.462L43.961 48.193L71.651 75.847Z" fill="#E09D00"/>
<path fill-rule="evenodd" clip-rule="evenodd" d="M35.144 52.045L36.986 50.233C36.986 50.233 36.173 48.004 37.364 46.936C38.555 45.868 40.565 46.528 40.565 46.528L47.03 40.279C47.03 40.279 46.577 37.03 47.177 36.43C47.777 35.83 54.482 32.563 55.13 31.909L53.753 30.532C53.753 30.532 44.369 31.66 43.352 32.674C42.755 33.274 38.288 37.786 35.102 40.972C35.102 40.972 35.9 43.249 34.85 44.299C33.797 45.352 31.427 44.599 31.427 44.599C30.308 45.718 29.558 46.465 29.558 46.465C28.769 47.26 29.234 48.376 30.203 49.345L32.261 51.403C33.236 52.375 34.355 52.834 35.144 52.045Z" fill="#E09D00"/>
<path fill-rule="evenodd" clip-rule="evenodd" d="M64.199 47.545C67.43 49.078 71.483 48.607 74.165 45.925C76.235 43.855 77.057 41.008 76.616 38.332L72.053 42.889L68.171 43.852L63.785 39.526L64.814 35.515L69.335 31.051C66.656 30.613 63.629 31.246 61.559 33.319C58.874 36.004 58.508 40.156 60.041 43.39L57.059 46.369C58.37 47.674 59.771 49.075 61.223 50.524L64.199 47.545Z" fill="#E09D00"/>
<path fill-rule="evenodd" clip-rule="evenodd" d="M51.296 61.357L46.781 56.845L42.857 60.772C42.611 61.012 42.437 61.285 42.314 61.57C42.083 61.48 41.954 61.477 41.873 61.51C41.123 61.261 40.331 61.093 39.5 61.093C35.357 61.093 32 64.408 32 68.5C32 72.592 35.357 75.907 39.5 75.907C43.643 75.907 47 72.592 47 68.5C47 67.651 46.823 66.847 46.562 66.088C46.547 66.016 46.544 65.95 46.502 65.845C46.814 65.716 47.108 65.542 47.366 65.281L51.296 61.357ZM39.5 72.814C37.064 72.814 35.093 70.885 35.093 68.5C35.093 66.115 37.061 64.186 39.5 64.186C41.939 64.186 43.907 66.115 43.907 68.5C43.907 70.885 41.936 72.814 39.5 72.814Z" fill="#E09D00"/>
</svg>
