<svg width="105" height="102" viewBox="0 0 105 102" fill="none" xmlns="http://www.w3.org/2000/svg">
<rect width="105" height="102" fill="#3D3D45"/>
<path fill-rule="evenodd" clip-rule="evenodd" d="M55.4 29.4615V68.8462H69.8V44.2308H60.2V39.3077H74.6L74.6 68.8461L77 68.8462V73.7692H55.4H31.4L31.4 73.7691L29 73.7692V68.8462L31.4 68.8461L31.4 29.4615H55.4ZM50.6 34.3846H36.2V68.8462H41V61.4615H45.8V68.8462H50.6V34.3846ZM65 59V63.9231H60.2V59H65ZM45.8 49.1539V54.0769H41V49.1539H45.8ZM65 49.1539V54.0769H60.2V49.1539H65ZM45.8 39.3077V44.2308H41V39.3077H45.8Z" fill="#E09D00"/>
</svg>
