<svg width="48" height="48" viewBox="0 0 48 48" fill="none" xmlns="http://www.w3.org/2000/svg">
<g clip-path="url(#clip0_74_130)">
<path d="M47.5613 8.67198L39.3279 0.438571C39.1527 0.263446 38.9152 0.165009 38.6674 0.165009C38.4197 0.165009 38.1822 0.263446 38.0069 0.438571L35.537 2.9086C35.3624 3.08316 35.2641 3.3197 35.2634 3.56654L35.2462 10.136C35.2459 10.2414 35.2645 10.3446 35.2981 10.4424L29.5391 16.2014L31.7983 18.4607L37.5573 12.6999C37.6543 12.7333 37.7568 12.75 37.8613 12.75C37.8622 12.75 37.863 12.75 37.8638 12.75L44.4332 12.7345C44.6801 12.7339 44.9166 12.6365 45.0912 12.4619L47.5612 9.99235C47.9261 9.62766 47.9261 9.03666 47.5613 8.67198ZM44.0429 10.8694L38.2472 10.8847L37.1152 9.75263L37.1305 3.95691L38.6675 2.41988L45.58 9.33245L44.0429 10.8694Z" fill="#E09D00"/>
<path d="M15.6363 37.2647C14.9817 37.9193 14.1114 38.2797 13.1857 38.2797C12.2602 38.2797 11.3898 37.9193 10.7354 37.2647L10.7353 37.2646C10.0807 36.6101 9.72028 35.7399 9.72028 34.8143C9.72028 33.8886 10.0807 33.0183 10.7353 32.3637L12.7599 30.3391L8.71059 26.2899L2.46862 32.5318C0.353432 34.6469 -0.372943 37.7246 0.572995 40.564L2.28862 45.7112L7.43596 47.4269C10.2756 48.373 13.3531 47.6466 15.4681 45.5314L21.7101 39.2894L17.6608 35.2402L15.6363 37.2647Z" fill="#E09D00"/>
<path d="M12.056 33.6782C11.7544 33.9799 11.5881 34.3874 11.5881 34.8143C11.5881 35.2409 11.7544 35.6421 12.0559 35.9438C12.3576 36.2455 12.7589 36.4118 13.1856 36.4118C13.6124 36.4118 14.0135 36.2455 14.3153 35.9438L25.5025 24.7551L23.3367 22.4009L12.056 33.6782Z" fill="#E09D00"/>
<path d="M24.5645 21.1768L26.8237 23.436L30.4779 19.7819L28.2187 17.5227L24.5645 21.1768Z" fill="#E09D00"/>
</g>
<defs>
<clipPath id="clip0_74_130">
<rect width="48" height="48" fill="white"/>
</clipPath>
</defs>
</svg>
